<svg width="65" height="65" viewBox="0 0 65 65" fill="none" xmlns="http://www.w3.org/2000/svg">
<path d="M19.5 47.6666C24.2865 47.6666 28.1667 43.7864 28.1667 39C28.1667 34.2135 24.2865 30.3333 19.5 30.3333C14.7135 30.3333 10.8333 34.2135 10.8333 39C10.8333 43.7864 14.7135 47.6666 19.5 47.6666Z" fill="#5D59FF"/>
<path d="M40.0833 54.1667C43.0749 54.1667 45.5 51.7415 45.5 48.75C45.5 45.7585 43.0749 43.3333 40.0833 43.3333C37.0918 43.3333 34.6667 45.7585 34.6667 48.75C34.6667 51.7415 37.0918 54.1667 40.0833 54.1667Z" fill="#5D59FF"/>
<path d="M41.1667 36.8333C48.3464 36.8333 54.1667 31.013 54.1667 23.8333C54.1667 16.6536 48.3464 10.8333 41.1667 10.8333C33.987 10.8333 28.1667 16.6536 28.1667 23.8333C28.1667 31.013 33.987 36.8333 41.1667 36.8333Z" fill="#5D59FF"/>
</svg>
