<svg width="25" height="25" viewBox="0 0 25 25" fill="none" xmlns="http://www.w3.org/2000/svg">
<path d="M6.48435 5.01146C6.28789 4.82172 6.02476 4.71672 5.75164 4.71909C5.47852 4.72147 5.21726 4.83102 5.02412 5.02415C4.83099 5.21729 4.72144 5.47855 4.71906 5.75167C4.71669 6.02479 4.82168 6.28792 5.01143 6.48438L11.0271 12.5L5.01039 18.5156C4.9109 18.6117 4.83154 18.7267 4.77695 18.8538C4.72236 18.9808 4.69362 19.1175 4.69242 19.2558C4.69122 19.3941 4.71758 19.5313 4.76995 19.6593C4.82233 19.7873 4.89967 19.9037 4.99748 20.0015C5.09528 20.0993 5.21159 20.1766 5.33961 20.229C5.46762 20.2814 5.60479 20.3077 5.7431 20.3065C5.88141 20.3053 6.0181 20.2766 6.14519 20.222C6.27228 20.1674 6.38722 20.088 6.48331 19.9885L12.5 13.9729L18.5156 19.9885C18.7121 20.1783 18.9752 20.2833 19.2483 20.2809C19.5214 20.2785 19.7827 20.169 19.9758 19.9759C20.169 19.7827 20.2785 19.5215 20.2809 19.2483C20.2833 18.9752 20.1783 18.7121 19.9885 18.5156L13.9729 12.5L19.9885 6.48438C20.1783 6.28792 20.2833 6.02479 20.2809 5.75167C20.2785 5.47855 20.169 5.21729 19.9758 5.02415C19.7827 4.83102 19.5214 4.72147 19.2483 4.71909C18.9752 4.71672 18.7121 4.82172 18.5156 5.01146L12.5 11.0271L6.48435 5.01042V5.01146Z" fill="white"/>
</svg>
