<svg width="1193" height="595" viewBox="0 0 1193 595" fill="none" xmlns="http://www.w3.org/2000/svg">
<path d="M1 595L0.999974 5.96046e-07" stroke="white" stroke-opacity="0.25"/>
<line x1="298.5" y1="595" x2="298.5" y2="2.18924e-08" stroke="white" stroke-opacity="0.1"/>
<line x1="149.5" y1="595" x2="149.5" y2="2.18924e-08" stroke="white" stroke-opacity="0.1"/>
<line x1="447.5" y1="595" x2="447.5" y2="2.18924e-08" stroke="white" stroke-opacity="0.1"/>
<line x1="596.5" y1="595" x2="596.5" y2="2.18924e-08" stroke="white" stroke-opacity="0.1"/>
<line x1="745.5" y1="595" x2="745.5" y2="2.18924e-08" stroke="white" stroke-opacity="0.1"/>
<line x1="894.5" y1="595" x2="894.5" y2="2.18924e-08" stroke="white" stroke-opacity="0.25"/>
<line x1="1043.5" y1="595" x2="1043.5" y2="2.18924e-08" stroke="white" stroke-opacity="0.25"/>
<path d="M161.5 323.5C161.5 329.575 156.575 334.5 150.5 334.5C144.425 334.5 139.5 329.575 139.5 323.5C139.5 317.425 144.425 312.5 150.5 312.5C156.575 312.5 161.5 317.425 161.5 323.5Z" fill="#4B47FF" stroke="white" stroke-width="3"/>
<path d="M454.5 521.5C454.5 525.366 451.366 528.5 447.5 528.5C443.634 528.5 440.5 525.366 440.5 521.5C440.5 517.634 443.634 514.5 447.5 514.5C451.366 514.5 454.5 517.634 454.5 521.5Z" fill="#3B38BB" stroke="white"/>
<path d="M758 240.5C758 247.404 752.404 253 745.5 253C738.596 253 733 247.404 733 240.5C733 233.596 738.596 228 745.5 228C752.404 228 758 233.596 758 240.5Z" fill="white"/>
</svg>
