<svg width="25" height="25" viewBox="0 0 25 25" fill="none" xmlns="http://www.w3.org/2000/svg">
<path d="M22.9167 18.7552C22.9167 19.3281 22.4521 19.7917 21.8802 19.7917H13.5365C13.2616 19.7917 12.9979 19.6825 12.8036 19.4881C12.6092 19.2937 12.5 19.0301 12.5 18.7552C12.5 18.4803 12.6092 18.2167 12.8036 18.0223C12.9979 17.8279 13.2616 17.7187 13.5365 17.7188H21.8802C22.4531 17.7188 22.9167 18.1823 22.9167 18.7552Z" fill="white"/>
<path d="M22.9167 12.5C22.9167 13.0729 22.4521 13.5365 21.8802 13.5365H3.11983C2.84495 13.5365 2.58132 13.4273 2.38695 13.2329C2.19257 13.0385 2.08337 12.7749 2.08337 12.5C2.08337 12.2251 2.19257 11.9615 2.38695 11.7671C2.58132 11.5728 2.84495 11.4636 3.11983 11.4636H21.8802C22.4532 11.4636 22.9167 11.9281 22.9167 12.5Z" fill="white"/>
<path d="M21.8802 7.28126C22.1551 7.28126 22.4188 7.17206 22.6131 6.97769C22.8075 6.78332 22.9167 6.51969 22.9167 6.2448C22.9167 5.96992 22.8075 5.70629 22.6131 5.51192C22.4188 5.31754 22.1551 5.20834 21.8802 5.20834H9.36983C9.23372 5.20834 9.09895 5.23515 8.9732 5.28724C8.84745 5.33933 8.73319 5.41567 8.63695 5.51192C8.5407 5.60816 8.46436 5.72242 8.41227 5.84817C8.36018 5.97392 8.33337 6.10869 8.33337 6.2448C8.33337 6.38091 8.36018 6.51569 8.41227 6.64144C8.46436 6.76719 8.5407 6.88144 8.63695 6.97769C8.73319 7.07393 8.84745 7.15028 8.9732 7.20236C9.09895 7.25445 9.23372 7.28126 9.36983 7.28126H21.8802Z" fill="white"/>
</svg>
